<svg width="49" height="49" viewBox="0 0 49 49" fill="none" xmlns="http://www.w3.org/2000/svg">
<path d="M49 24.5C49 29.3456 47.5631 34.0825 44.871 38.1115C42.1789 42.1405 38.3525 45.2807 33.8757 47.135C29.399 48.9894 24.4728 49.4746 19.7203 48.5292C14.9678 47.5839 10.6023 45.2505 7.17589 41.8241C3.74952 38.3977 1.4161 34.0322 0.470768 29.2797C-0.474566 24.5272 0.0106196 19.601 1.86496 15.1243C3.7193 10.6475 6.85956 6.82109 10.8885 4.12899C14.9175 1.4369 19.6544 0 24.5 0C30.9978 0 37.2295 2.58124 41.8241 7.17588C46.4187 11.7705 49 18.0022 49 24.5Z" fill="#DFE8F5"/>
<path d="M49 24.5C49 29.3456 47.5631 34.0825 44.871 38.1115C42.1789 42.1405 38.3525 45.2807 33.8757 47.135C29.399 48.9894 24.4728 49.4746 19.7203 48.5292C14.9678 47.5839 10.6023 45.2505 7.17589 41.8241C3.74952 38.3977 1.4161 34.0322 0.470768 29.2797C-0.474566 24.5272 0.0106196 19.601 1.86496 15.1243C3.7193 10.6475 6.85956 6.82109 10.8885 4.12899C14.9175 1.4369 19.6544 0 24.5 0C30.9978 0 37.2295 2.58124 41.8241 7.17588C46.4187 11.7705 49 18.0022 49 24.5Z" fill="#DFE8F5"/>
<path d="M49 24.5C49 29.3456 47.5631 34.0825 44.871 38.1115C42.1789 42.1405 38.3525 45.2807 33.8757 47.135C29.399 48.9894 24.4728 49.4746 19.7203 48.5292C14.9678 47.5839 10.6023 45.2505 7.17589 41.8241C3.74952 38.3977 1.4161 34.0322 0.470768 29.2797C-0.474566 24.5272 0.0106196 19.601 1.86496 15.1243C3.7193 10.6475 6.85956 6.82109 10.8885 4.12899C14.9175 1.4369 19.6544 0 24.5 0C30.9978 0 37.2295 2.58124 41.8241 7.17588C46.4187 11.7705 49 18.0022 49 24.5Z" fill="#DFE8F5"/>
<path d="M26.5 31.5L28 38H24H20.5L21.5 31.5H26.5Z" fill="url(#paint0_linear_68_37)"/>
<path d="M10 19H38.5L38.4385 27H10V19Z" fill="url(#paint1_linear_68_37)"/>
<path d="M23.5 13H25.5V15.5H23.5V13Z" fill="#9A8329"/>
<path d="M11.5 32L36.1938 32C37.2031 31.9997 38.1709 31.8023 38.8845 31.4511C39.1571 31.3171 39.384 31.1647 39.5605 31C40.2046 30.8446 40.5097 30.2854 40.5 30C40.4903 29.7146 40.5 29.5 40.5 29.5C40.5 29.5 40.5 29.2939 40.5 29C40.5 28.9023 40.5 29 40.5 28.5C40.5 28.6342 40.5 28.3732 40.5 28.5C40.5 28.2216 40.5 28.2282 40.5 28C40.5 27.8424 40.5 27 40 27C40 27 9 27 8.5 27C8 27 8 28 8 28L8 29.5L8.5 30C8.5 30 8.78585 31.1488 9.5 31.5C10.2142 31.8512 10.4903 32 11.5 32Z" fill="url(#paint2_linear_68_37)"/>
<path d="M19 39.5L28.5 39.5C28.8393 39.4999 29.2601 39.5702 29.5 39.5C29.5916 39.4732 29.6979 39.1892 29.7572 39.1563C29.9737 39.1252 29.9285 38.6571 29.9253 38.6C29.9221 38.5429 29.9253 38.5 29.9253 38.5C29.9253 38.5 29.9253 38.4588 29.9253 38.4C29.9253 38.3805 30.0934 38.3 29.9253 38.3C29.9253 38.3268 29.9253 38.2746 29.9253 38.3C29.9253 38.2443 29.9253 38.0456 29.9253 38C29.9253 37.9685 29.7572 38 29.7572 38C29.7572 38 19.4168 38 19 38C18.5832 38 18.6381 37.8619 18.5 38C18.3619 38.1381 18.4328 38.3167 18.5 38.5C18.5907 38.7473 18.2599 38.9298 18.5 39C18.7401 39.0702 18.6606 39.5 19 39.5Z" fill="#062259"/>
<path d="M38.5 18L13.1501 18.0383C13.0024 18.0383 12.6616 17.988 12.5251 18.0383C12.3886 18.0885 12.1296 17.9454 12.0251 18.0383C11.9207 18.1312 10.0817 17.917 10.0251 18.0383C9.96859 18.1596 10.0251 18.407 10.0251 18.5383L10.0251 20.5383C10.0251 21.0687 11.5251 22.5383 12.0251 22.5383C12.4471 22.9134 13.4284 23.0383 14.0251 23.0383C14.6219 23.0383 15.5251 22.5383 16.0251 22.0383C16.4471 21.6632 16.5251 21.5687 16.5251 21.0383C16.5251 21.5687 17.0251 22.0383 17.5251 22.0383C17.9471 22.4134 18.4284 22.5383 19.0251 22.5383C19.6219 22.5383 20.6032 22.4134 21.0251 22.0383C21.4471 21.6632 22.5251 21.0687 22.5251 20.5383C22.5251 21.0687 23.1032 21.6632 23.5251 22.0383C23.9471 22.4134 24.4284 22.5383 25.0251 22.5383C25.2668 22.5383 26.251 22.2019 26.5251 22.0383C26.9278 21.7979 27.0251 21.5383 27.0251 21.5383C27.4471 21.1632 27.5251 21.0687 27.5251 20.5383C27.5251 21.0687 28.078 21.6249 28.5 22C28.922 22.3751 29.9033 22.5 30.5 22.5C31.0967 22.5 31.578 22.3751 32 22C32.422 21.6249 32.5 21.5304 32.5 21C32.4692 21.058 32.8071 21.8281 33 22C33.1929 22.1719 33.4717 22.5284 33.5 22.5C33.8905 22.6952 34.6095 22.6342 35 22.5C35 22.5 36.605 22.0929 36.5 22C36.6384 22.0664 37.5 21.5 37.5 21.5C37.5 21.5 37.8931 21.3331 38 21C38.0483 20.8495 38.4415 20.6852 38.5 20.5C38.5419 20.3674 38.4561 20.1413 38.5 20C38.5 19 38.5818 17.9997 38.5 18Z" fill="#B6CAF6"/>
<path d="M35.5 15L13.4992 15C12.5713 15.0003 11.6816 15.1977 11.0255 15.5488C10.3694 15.9 10.0005 16.3762 10 16.8728V20H38.5V17C38.4995 16.5032 38.1566 15.8512 37.5 15.5C36.8434 15.1488 36.4282 15 35.5 15Z" fill="#B6CAF6"/>
<path d="M24.5033 14C25.1655 14 25.8005 13.7546 26.2687 13.3178C26.737 12.881 27 12.2885 27 11.6708C27.0001 11.2475 26.877 10.8321 26.6438 10.4689L24.5033 7L22.3562 10.4596C22.123 10.8228 21.9999 11.2382 22 11.6615C21.9987 11.9687 22.0625 12.2731 22.1878 12.5571C22.3131 12.8412 22.4974 13.0993 22.7301 13.3167C22.9628 13.5341 23.2392 13.7063 23.5435 13.8236C23.8479 13.9409 24.1741 14.0008 24.5033 14Z" fill="url(#paint3_linear_68_37)"/>
<defs>
<linearGradient id="paint0_linear_68_37" x1="24.25" y1="31.5" x2="24.25" y2="38" gradientUnits="userSpaceOnUse">
<stop offset="0.490357" stop-color="#0D48BF"/>
<stop offset="1" stop-color="#062259"/>
</linearGradient>
<linearGradient id="paint1_linear_68_37" x1="24.4964" y1="21.5" x2="24.5032" y2="28.5" gradientUnits="userSpaceOnUse">
<stop stop-color="#4B72D3"/>
<stop offset="0.615385" stop-color="#0C53E1"/>
</linearGradient>
<linearGradient id="paint2_linear_68_37" x1="24.5" y1="32" x2="24.5" y2="26.5" gradientUnits="userSpaceOnUse">
<stop offset="0.581731" stop-color="#0D48BF"/>
<stop offset="1" stop-color="#062259"/>
</linearGradient>
<linearGradient id="paint3_linear_68_37" x1="24.5" y1="7" x2="24.5" y2="13.5" gradientUnits="userSpaceOnUse">
<stop offset="0.350962" stop-color="#E6BF24"/>
<stop offset="1" stop-color="#9A8329"/>
</linearGradient>
</defs>
</svg>
