<svg width="15" height="18" viewBox="0 0 15 18" xmlns="http://www.w3.org/2000/svg">\n
    <linearGradient id="ic_coin-0" x1="8.255" y1="0.047" x2="8.255" y2="15.872" gradientUnits="userSpaceOnUse">
        <stop offset="0" stop-color="#ffe195"/>
        <stop offset="0.494" stop-color="#fe8013"/>
        <stop offset="0.715" stop-color="#ff750b"/>
        <stop offset="1" stop-color="#fa832e"/>
    </linearGradient>
    <linearGradient id="ic_coin-1" x1="5.784" y1="0.391" x2="5.784" y2="15.545" gradientUnits="userSpaceOnUse">
        <stop offset="0" stop-color="#ffe49d"/>
        <stop offset="0.26" stop-color="#fbc946"/>
        <stop offset="0.714" stop-color="#fd9a25"/>
        <stop offset="1" stop-color="#fe8215"/>
    </linearGradient>
    <linearGradient id="ic_coin-2" x1="5.208" y1="2.266" x2="5.208" y2="13.854" gradientUnits="userSpaceOnUse">
        <stop offset="0" stop-color="#f7610c"/>
        <stop offset="0.325" stop-color="#ff8d4d"/>
        <stop offset="0.691" stop-color="#de5000"/>
        <stop offset="1" stop-color="#f88b28"/>
    </linearGradient>
    <linearGradient id="ic_coin-3" x1="5.497" y1="2.501" x2="5.468" y2="13.662" gradientUnits="userSpaceOnUse">
        <stop offset="0" stop-color="#facd48"/>
        <stop offset="0.224" stop-color="#fbaf3d"/>
        <stop offset="0.535" stop-color="#ff820f"/>
        <stop offset="0.835" stop-color="#fe7c11"/>
    </linearGradient>
    <path d="M14.815,7.98C14.815,3.798 12.24,0.265 8.966,0.047H6.248C2.864,0.156 1.695,3.841 1.695,8.09C1.695,12.339 2.855,15.664 6.238,15.861L6.279,15.872H8.898C12.171,15.545 14.815,12.163 14.815,7.98Z" fill="url(#ic_coin-0)"/>\n
    <path d="M6.098,15.806C9.466,15.806 12.196,12.268 12.196,7.903C12.196,3.538 9.466,0 6.098,0C2.73,0 0,3.538 0,7.903C0,12.268 2.73,15.806 6.098,15.806Z" fill="#ffd6ac"/>\n
    <path d="M5.784,15.545C8.978,15.545 11.568,12.152 11.568,7.968C11.568,3.783 8.978,0.391 5.784,0.391C2.59,0.391 0,3.783 0,7.968C0,12.152 2.59,15.545 5.784,15.545Z" fill="url(#ic_coin-1)"/>\n
    <path d="M5.208,13.854C7.558,13.854 9.463,11.26 9.463,8.06C9.463,4.86 7.558,2.266 5.208,2.266C2.858,2.266 0.953,4.86 0.953,8.06C0.953,11.26 2.858,13.854 5.208,13.854Z" fill="url(#ic_coin-2)"/>\n
    <path d="M5.468,13.662C7.672,13.662 9.459,11.184 9.459,8.128C9.459,5.071 7.672,2.594 5.468,2.594C3.263,2.594 1.477,5.071 1.477,8.128C1.477,11.184 3.263,13.662 5.468,13.662Z" fill="url(#ic_coin-3)"/>\n
    <path d="M0.369,7.53C0.567,7.57 0.771,7.572 0.969,7.536C1.135,4.386 3.101,1.899 5.503,1.899C7.925,1.899 9.903,4.428 10.041,7.616C10.256,7.645 10.475,7.64 10.688,7.6C10.902,7.601 11.115,7.568 11.318,7.5C11.036,3.481 8.695,0.5 5.553,0.5C2.411,0.5 0.317,3.3 0.031,7.312C0.116,7.421 0.235,7.498 0.369,7.53Z" fill="#ffffff" fill-opacity="0.1" stroke-opacity="0.1"/>\n
    <path d="M8.891,7.73C8.784,5.053 7.222,2.93 5.31,2.93C3.398,2.93 1.81,5.086 1.727,7.792C4.084,8.351 6.543,8.33 8.891,7.73Z" fill="#ffffff" fill-opacity="0.2" stroke-opacity="0.2"/>\n
    <path d="M11.413,17.616C11.413,17.827 9.613,17.998 7.386,17.998C5.159,17.998 3.359,17.827 3.359,17.616C3.359,17.405 5.159,17.234 7.386,17.234C9.613,17.234 11.413,17.405 11.413,17.616Z" fill="#000000" fill-opacity="0.1" stroke-opacity="0.1"/>\n
</svg>