<svg width="48.001"

height="48" viewBox="0 0 32 32" xmlns="http://www.w3.org/2000/svg">
  <defs>
    <linearGradient gradientUnits="userSpaceOnUse" x1="14.65" y1="13.024" x2="17.934" y2="10.006" id="ic_discipline-0">
      <stop offset="0" stop-color="#f3f04c"/>
      <stop offset="1" stop-color="#888a00"/>
    </linearGradient>
    <linearGradient id="ic_discipline-0" x1="-8.127" y1="14.552" x2="-4.265" y2="-2.981" gradientUnits="userSpaceOnUse" spreadMethod="reflect">
      <stop offset="0" stop-color="#4c8bfb"/>
      <stop offset="1" stop-color="#1051c1"/>
    </linearGradient>
  </defs>
  <path d="M16,16m-16,0a16,16 0,1 1,32 0a16,16 0,1 1,-32 0" fill="#dfe8f5"/>
  <path d="M 16.039 7.093 C 16.007 7.217 15.939 7.332 15.845 7.42 L 11.488 11.11 C 11.223 11.099 10.958 11.064 10.701 11.001 C 10.574 11.5 11.03 11.951 11.522 11.811 C 11.623 11.784 11.716 11.732 11.794 11.66 L 15.885 7.877 C 16.103 7.679 16.165 7.36 16.039 7.093 Z" fill="#1258c9"/>
  <path d="M 10.447 11.089 C 10.169 11.345 9.739 11.325 9.485 11.046 L 8.904 10.41 C 8.649 10.131 8.667 9.698 8.941 9.44 L 13.93 4.828 C 14.207 4.572 14.636 4.588 14.893 4.866 L 15.475 5.507 C 15.727 5.787 15.709 6.219 15.433 6.477 L 10.447 11.089 Z" fill="#4d86ff"/>
  <path d="M 16.397 17.626 C 16.12 17.883 16.1 18.317 16.354 18.596 L 16.935 19.236 C 17.19 19.515 17.62 19.533 17.898 19.277 L 22.888 14.664 C 23.165 14.408 23.183 13.974 22.931 13.694 L 22.348 13.053 C 22.092 12.776 21.662 12.759 21.386 13.014 L 16.397 17.626 Z" fill="#4d86ff"/>
  <path d="M 20.834 12.352 C 20.705 12.372 20.584 12.431 20.489 12.519 L 16.474 16.575 C 16.46 16.841 16.474 17.108 16.513 17.372 C 16.008 17.452 15.607 16.954 15.788 16.471 C 15.826 16.375 15.884 16.287 15.96 16.218 L 20.045 12.436 C 20.261 12.235 20.582 12.202 20.834 12.352 Z" fill="#1258c9"/>
  <path d="M 4.084 20.557 L 5.096 19.615 L 5.424 19.973 L 12.971 13.084 L 11.611 11.586 L 15.825 7.687 L 20.225 12.517 L 16.008 16.417 L 14.964 15.271 L 7.426 22.154 L 7.904 22.677 L 6.893 23.619 L 4.084 20.557 Z" fill="url(#ic_discipline-0)" stroke="#000000" stroke-opacity="0" stroke-width="1"/>
  <path d="M 11.795 11.665 C 11.524 11.919 11.1 11.901 10.85 11.626 C 10.6 11.353 10.617 10.926 10.89 10.675 L 14.987 6.891 C 15.258 6.637 15.683 6.654 15.931 6.931 C 16.179 7.203 16.161 7.626 15.891 7.876 L 11.795 11.665 Z" fill="#0c48bf"/>
  <path d="M 15.953 16.225 C 15.681 16.475 15.662 16.903 15.913 17.176 C 16.162 17.45 16.586 17.469 16.856 17.214 L 20.948 13.438 C 21.222 13.187 21.239 12.76 20.987 12.486 C 20.739 12.21 20.314 12.193 20.043 12.446 L 15.953 16.225 Z" fill="#0c48bf"/>
  <path d="M16.056,14.579 L13.244,11.471 L16.529,8.453 L19.341,11.561 Z" fill="url(#ic_discipline-0)"/>
  <path style="stroke: rgb(0, 0, 0); fill: rgb(14, 72, 194); stroke-opacity: 0.99; stroke-width: 0px;" d="M 24.867 21.024 L 14.561 21.033 C 14.092 21.036 13.887 21.493 13.841 21.578 L 13.102 23.545 C 13.015 23.718 12.967 24.217 13.57 24.118 L 26.126 24.075 C 26.537 24.109 26.552 23.669 26.399 23.405 L 25.619 21.573 C 25.429 21.205 25.257 21.054 24.867 21.024 Z"/>
</svg>