<svg width="32" height="32" viewBox="0 0 32 32" xmlns="http://www.w3.org/2000/svg">\n
    <linearGradient id="ic_discipline_preedited-0" x1="-2.3276" y1="15.6656" x2="1.0649" y2="0.3833" gradientUnits="userSpaceOnUse">
        <stop offset="0" stop-color="#4c8bfb"/>
        <stop offset="1" stop-color="#1051c1"/>
    </linearGradient>
    <path d="M16,16m-16,0a16,16 0,1 1,32 0a16,16 0,1 1,-32 0" fill="#dfe8f5"/>\n
    <path d="M18.898,9.1647a0.588,0.588 122,0 1,-0.1701 0.2856L14.9002,12.6657a3.505,3.505 122,0 1,-0.6909 -0.094,0.583 0.583,122 0,0 0.9597,0.5738L18.7624,9.8487A0.584,0.584 122,0 0,18.898 9.1647Z" fill="#1258c9"/>\n
    <path d="M13.9867,12.6478A0.6,0.6 122,0 1,13.1408 12.6111L12.6307,12.0556A0.6,0.6 122,0 1,12.6635 11.2106L17.0455,7.1908A0.6,0.6 122,0 1,17.8906 7.2236L18.4015,7.783a0.6,0.6 122,0 1,-0.0359 0.8447Z" fill="#4d86ff"/>\n
    <path d="M19.2113,18.3455a0.6,0.6 122,0 0,-0.0366 0.8459l0.5103,0.5565a0.6,0.6 122,0 0,0.8459 0.0366L24.9137,15.7636A0.6,0.6 122,0 0,24.9505 14.9186L24.4384,14.3585A0.6,0.6 122,0 0,23.5943 14.3255Z" fill="#4d86ff"/>\n
    <path d="M23.1092,13.7489A0.584,0.584 122,0 0,22.8053 13.895L19.2798,17.4286a3.454,3.454 122,0 0,0.0342 0.6951A0.583,0.583 122,0 1,18.8284 17.1182L22.4168,13.8215A0.584,0.584 122,0 1,23.1092 13.7489Z" fill="#1258c9"/>\n
    <path d="M8.3977,20.8995l0.8891,-0.821 0.2876,0.3123 6.6293,-6.0041L15.0083,13.0811 18.7099,9.6833l3.864,4.2097L18.8706,17.2922l-0.9173,-0.9993 -6.6202,5.999 0.4204,0.4561 -0.8891,0.821Z" fill="url(#ic_discipline_preedited-0)" stroke="#000000" stroke-opacity="0" stroke-width="1"/>\n
    <path d="M15.1701,13.1504a0.584,0.584 122,0 1,-0.829 -0.0344l0,0a0.584,0.584 122,0 1,0.0344 -0.829L17.9739,8.9891a0.583,0.583 122,0 1,0.829 0.0344l0,0a0.584,0.584 122,0 1,-0.0355 0.8241Z" fill="#0c48bf"/>\n
    <path d="M18.8225,17.1237a0.584,0.584 122,0 0,-0.0354 0.8292l0,0a0.585,0.585 122,0 0,0.829 0.0344l3.5934,-3.2927a0.584,0.584 122,0 0,0.0344 -0.829l0,0a0.583,0.583 122,0 0,-0.829 -0.0344Z" fill="#0c48bf"/>\n
</svg>