<svg width="49" height="49" viewBox="0 0 49 49" fill="none" xmlns="http://www.w3.org/2000/svg">
<path d="M49 24.5C49 29.3456 47.5631 34.0825 44.871 38.1115C42.1789 42.1405 38.3525 45.2807 33.8757 47.135C29.399 48.9894 24.4728 49.4746 19.7203 48.5292C14.9678 47.5839 10.6023 45.2505 7.17589 41.8241C3.74951 38.3977 1.41611 34.0322 0.470772 29.2797C-0.474566 24.5272 0.0106155 19.601 1.86496 15.1243C3.71931 10.6475 6.85954 6.82109 10.8885 4.12899C14.9175 1.4369 19.6544 0 24.5 0C30.9978 0 37.2295 2.58124 41.8241 7.17588C46.4188 11.7705 49 18.0022 49 24.5Z" fill="#DFE8F5"/>
<path d="M32 32.5L15.6483 20.5234C14.6328 19.7326 12.972 18.4618 13.1521 19.6456L17.5 42L32 32.5Z" fill="#5597FF"/>
<g filter="url(#filter0_d_68_27)">
<path d="M37.6608 28.765L43.1403 7.90719C43.5549 6.6102 44.4214 3.83905 40.8261 6.23841L22.6908 17.2252L37.6608 28.765Z" fill="url(#paint0_linear_68_27)"/>
</g>
<path d="M17.6761 41.863C18.1721 43.0283 21.7419 41.7616 25.6489 39.0327C29.5564 36.3041 32.4954 33.666 32 32.5C31.5041 31.3347 27.7608 32.0834 23.8533 34.812C19.9469 37.5402 17.1808 40.697 17.6761 41.863Z" fill="#204DB6"/>
<path d="M25.9123 18.1557C24.9464 16.7709 24.9464 15.8477 24.9464 15.8477L28.8097 13.5397C28.8097 13.5397 28.7117 17.5352 29.6775 19.8431L25.9123 18.1557Z" fill="#FE9848"/>
<path d="M21.8156 18.0119C20.7231 19.4568 22.9893 22.9876 26.8781 25.8966C30.7667 28.8065 35.9257 30.5725 37.0191 29.1278C38.1115 27.6829 34.7238 23.5741 30.8352 20.6642C26.9473 17.7554 22.909 16.5672 21.8156 18.0119Z" fill="#F4A56B"/>
<path d="M39.0618 23.1373C33.0328 20.5578 31.1702 15.2492 31.604 11.797L34.0185 10.4122C34.0185 12.7202 35.2437 16.3831 40.2348 19.2941L39.0618 23.1373Z" fill="#FE9848"/>
<path d="M40.8214 16.8235C37.0992 14.3976 35.9074 9.77192 36.0362 9.11482L38.4507 7.73005C38.9583 10.1559 38.8249 10.7801 41.7011 13.5294L40.8214 16.8235Z" fill="#FE9848"/>
<path d="M23 35.0001C23 35.5524 22.0523 36.0001 21.5 36.0001C20.9477 36.0001 20.5 35.5524 20.5 35.0001C20.5 34.0001 21.4477 33.5001 22 33.5001C22.5523 33.5001 23 34.4478 23 35.0001Z" fill="#A1CAFF"/>
<path d="M23 35.0001C23 35.5524 22.0523 36.0001 21.5 36.0001C20.9477 36.0001 20.5 35.5524 20.5 35.0001C20.5 34.0001 21.4477 33.5001 22 33.5001C22.5523 33.5001 23 34.4478 23 35.0001Z" fill="#A1CAFF"/>
<path d="M26.4077 29.8936C26.1112 30.5001 25.7747 30.5001 25.2225 30.5001C25.1112 30.5 25.271 30.7416 25.1112 30.2129C25.0148 29.8936 24.9623 29.5001 25.5146 29.5001C26.0668 29.5001 26.261 29.6065 26.4077 29.8936Z" fill="#A1CAFF"/>
<path d="M23.1705 30.5001C22.9889 31.0001 22.7192 31.2131 22.1669 31.2131C21.6146 31.2131 21.5 31.0524 21.5 30.5001C21.5 29.5001 22.1182 29.6066 22.6705 29.6066C23.2228 29.6066 23.1705 29.9478 23.1705 30.5001Z" fill="#A1CAFF"/>
<path d="M17.8921 38.8011C17.7105 39.3011 17.5523 39.5 17 39.5C16.4477 39.5 17.1013 39.254 17.1013 38.7017C17.1013 37.7017 16.5491 38 17.1013 38C17.6536 38 17.8921 38.2488 17.8921 38.8011Z" fill="#A1CAFF"/>
<path d="M17.8921 38.8011C17.7105 39.3011 17.5523 39.5 17 39.5C16.4477 39.5 17.1013 39.254 17.1013 38.7017C17.1013 37.7017 16.5491 38 17.1013 38C17.6536 38 17.8921 38.2488 17.8921 38.8011Z" fill="#A1CAFF"/>
<path d="M19.5 30.0001C19.3184 30.5001 18.9444 30.713 18.3921 30.713C17.8398 30.713 17.5 30.1588 17.5 29.6065C17.5 28.6065 18.1182 28.713 18.6705 28.713C19.2228 28.713 19.5 29.4478 19.5 30.0001Z" fill="#A1CAFF"/>
<path d="M20.5037 26.2871C20.3221 26.7871 20.0523 27 19.5 27C18.9477 27 18.8332 26.8394 18.8332 26.2871C18.8332 25.2871 19.4514 25.3935 20.0037 25.3935C20.556 25.3935 20.5037 25.7348 20.5037 26.2871Z" fill="#A1CAFF"/>
<path d="M17.1013 25.5741C16.9197 26.0741 16.65 26.2871 16.0977 26.2871C15.7712 26.2871 15.5 26 15.4308 25.5741C15.2706 24.587 16.0491 24.6806 16.6013 24.6806C17.1013 24.8783 17.1013 25.0218 17.1013 25.5741Z" fill="#A1CAFF"/>
<path d="M18.3921 23.5C18.2105 24 17.9408 24.2129 17.3885 24.2129C16.8362 24.2129 16.7216 24.0523 16.7216 23.5C16.7216 22.5 17.3398 22.6065 17.8921 22.6065C18.4444 22.6065 18.3921 22.9477 18.3921 23.5Z" fill="#A1CAFF"/>
<path d="M23.1705 27.7335C22.874 28.34 22.5376 28.34 21.9853 28.34C21.874 28.3399 22.0338 28.5815 21.874 28.0528C21.7776 27.7335 21.7251 27.34 22.2774 27.34C22.8297 27.34 23.0238 27.4464 23.1705 27.7335Z" fill="#A1CAFF"/>
<path d="M26.4077 29.8936C26.1112 30.5001 25.7747 30.5001 25.2225 30.5001C25.1112 30.5 25.271 30.7416 25.1112 30.2129C25.0148 29.8936 24.9623 29.5001 25.5146 29.5001C26.0668 29.5001 26.261 29.6065 26.4077 29.8936Z" fill="#A1CAFF"/>
<defs>
<filter id="filter0_d_68_27" x="18.6908" y="5.29306" width="28.8496" height="31.4719" filterUnits="userSpaceOnUse" color-interpolation-filters="sRGB">
<feFlood flood-opacity="0" result="BackgroundImageFix"/>
<feColorMatrix in="SourceAlpha" type="matrix" values="0 0 0 0 0 0 0 0 0 0 0 0 0 0 0 0 0 0 127 0" result="hardAlpha"/>
<feOffset dy="4"/>
<feGaussianBlur stdDeviation="2"/>
<feComposite in2="hardAlpha" operator="out"/>
<feColorMatrix type="matrix" values="0 0 0 0 0 0 0 0 0 0 0 0 0 0 0 0 0 0 0.25 0"/>
<feBlend mode="normal" in2="BackgroundImageFix" result="effect1_dropShadow_68_27"/>
<feBlend mode="normal" in="SourceGraphic" in2="effect1_dropShadow_68_27" result="shape"/>
</filter>
<linearGradient id="paint0_linear_68_27" x1="32.0078" y1="19.5396" x2="42.3785" y2="6.55296" gradientUnits="userSpaceOnUse">
<stop stop-color="#EC6C17"/>
<stop offset="1" stop-color="#F6B43A"/>
</linearGradient>
</defs>
</svg>
