<svg width="49" height="49" viewBox="0 0 49 49" fill="none" xmlns="http://www.w3.org/2000/svg">
    <g clip-path="url(#clip0_117_5)">
        <path d="M22.3322 -0.128723C35.8394 -1.32859 47.7517 8.672 48.9092 22.1828C50.0665 35.6937 40.0285 47.5746 26.5141 48.6894C13.0597 49.7994 1.24305 39.8156 0.0908086 26.3647C-1.06143 12.914 8.8851 1.06582 22.3322 -0.128723Z" fill="#DFE8F5"/>
        <path d="M13 26.5074C13.8955 26.5074 14.9955 26.4997 15.8657 26.5074C15.8657 25.6172 15.8657 23.433 15.8943 21.7737L36.1048 21.7821L38 21.7737C37.9927 25.5755 37.7491 29.5991 37.4949 33.3959C37.3653 35.3315 37.2642 37.8434 37.0139 39.7111C33.2168 39.8805 28.7485 39.6477 24.8698 39.6875C22.975 39.7072 17.3143 39.8529 15.747 39.6309C15.2697 38.2854 14.7683 35.8258 14.4459 34.3536C13.9291 31.9933 13.1903 28.8724 13 26.5074Z" fill="url(#paint0_linear_117_5)"/>
        <path d="M31.6444 38.7591H35.3461C35.4317 38.7591 35.5172 38.7332 35.5965 38.6831C35.6757 38.633 35.7475 38.5586 35.8088 38.4665C35.869 38.3727 35.9176 38.2611 35.9493 38.1383C35.981 38.0235 35.9979 37.899 36 37.7745C36 37.6419 35.9831 37.5125 35.9493 37.3913C35.9176 37.2684 35.8701 37.1568 35.8088 37.0663C35.7475 36.9725 35.6757 36.8982 35.5965 36.8464C35.5162 36.7979 35.4317 36.7737 35.3461 36.7737H31.6444C31.562 36.7753 31.4817 36.8011 31.4057 36.8464C31.3264 36.8965 31.2535 36.9709 31.1933 37.0663C31.131 37.1568 31.0824 37.2684 31.0507 37.3913C31.0169 37.5125 31 37.6419 31 37.7745C31.0011 38.0396 31.0697 38.2935 31.1933 38.481C31.3159 38.6686 31.4828 38.7737 31.656 38.7737L31.6444 38.7591Z" fill="white" fill-opacity="0.59"/>
        <path d="M12.358 9.77366C12.8435 10.139 13.5349 12.9524 13.9738 13.7455C14.6362 14.9427 15.1334 15.5561 16 16.5392C15.4019 17.0355 10.2637 20.6529 9.81881 20.7737C7.41625 18.3204 6.90919 16.952 6 13.6927C7.22864 12.7581 11.012 10.47 12.358 9.77366Z" fill="#4C8BF9"/>
        <path d="M38.9302 12.7737C39.7053 13.008 42.3017 14.4017 43 14.8426C42.2693 15.8869 41.5863 17.5853 41.0798 18.7737C39.751 18.2919 38.2927 17.5905 37 17.0007C37.4577 15.2585 37.8613 14.2361 38.9302 12.7737Z" fill="#1352BE"/>
        <path d="M23.8484 26.6614C21.6339 26.7231 18.1442 26.8404 16 26.7245C16 25.4478 16.0889 20.4439 16.0889 19.9056C16.0889 19.3672 16.5675 18.7737 17.3088 18.7737C18.0502 18.7737 18.2518 18.7868 18.5287 18.7737C23.5825 18.7737 29.3777 18.7737 34.4316 18.7737C35.0908 18.7737 35.6515 18.7737 35.6515 18.7737C35.6515 18.7737 36 18.8012 36 19.3396C36 19.878 36 19.7169 36 19.9055C36 20.4715 36 20.8642 36 21.6249C36 22.3856 35.9258 23.7618 35.9258 23.7618C35.9258 23.7618 27.4365 23.6099 24.3203 23.7964C24.1704 24.7529 24.013 25.7079 23.8484 26.6614Z" fill="url(#paint1_linear_117_5)"/>
    </g>
    <defs>
        <linearGradient id="paint0_linear_117_5" x1="25.988" y1="39.6399" x2="25.5938" y2="22.2759" gradientUnits="userSpaceOnUse">
            <stop stop-color="#224597"/>
            <stop offset="0.677885" stop-color="#4A88F6"/>
        </linearGradient>
        <linearGradient id="paint1_linear_117_5" x1="27" y1="28" x2="26.491" y2="17.391" gradientUnits="userSpaceOnUse">
            <stop stop-color="#BE5F1F"/>
            <stop offset="0.745192" stop-color="#F4CE3B"/>
        </linearGradient>
        <clipPath id="clip0_117_5">
            <rect width="49" height="49" fill="white"/>
        </clipPath>
    </defs>
</svg>