<svg width="48.001"

height="48" viewBox="-10.157 -10.194 52.503 52.425" xmlns="http://www.w3.org/2000/svg">
  <defs>
    <linearGradient id="ic_fpt_care-0" x1="16.269" y1="12.049" x2="16.269" y2="14.536" gradientUnits="userSpaceOnUse">
      <stop offset="0" stop-color="#f6d43b"/>
      <stop offset="1" stop-color="#917900"/>
    </linearGradient>
    <linearGradient id="ic_fpt_care-1" x1="16.1" y1="7.459" x2="16.1" y2="17.291" gradientUnits="userSpaceOnUse">
      <stop offset="0" stop-color="#4a8bfc"/>
      <stop offset="1" stop-color="#0055ae"/>
    </linearGradient>
  </defs>
  <path d="M -10.002 16.014 C -10.002 -4.003 11.666 -16.514 29.002 -6.505 C 37.047 -1.86 42.002 6.724 42.002 16.014 C 42.002 36.031 20.334 48.542 2.998 38.533 C -5.047 33.888 -10.002 25.304 -10.002 16.014" fill="#dfe8f5" stroke-width="0.5"/>
  <rect x="4.488" y="5.227" width="24.004" height="6.247" fill="#154bbf" rx="3.124" ry="3.124"/>
  <rect x="-0.403" y="7.84" width="33.005" height="19.664" fill="url(#ic_fpt_care-1)" stroke-width="0.5" rx="2.759" ry="2.759"/>
  <rect x="-0.306" y="9.908" width="32.97" height="4.82" fill="url(#ic_fpt_care-0)"/>
  <path d="M 5.217 15.601 H 7.782 V 18.475 H 10.684 V 21.041 H 7.782 V 23.915 H 5.217 V 21.041 H 2.315 V 18.475 H 5.217 Z" fill="#d8d8d8"/>
  <path d="M 16.604 20.851 L 22.501 20.851 C 22.706 20.851 22.873 21.072 22.873 21.344 C 22.873 21.616 22.706 21.835 22.501 21.835 L 16.604 21.835 C 16.399 21.835 16.23 21.616 16.23 21.344 C 16.23 21.072 16.399 20.851 16.604 20.851 Z" fill="#8badfb" stroke="#3456a8" stroke-width="0.05" stroke-opacity="0.99"/>
  <path d="M 16.67 18.259 L 25.938 18.267 C 26.255 18.328 26.302 18.48 26.322 18.752 C 26.342 19.024 26.233 19.151 25.924 19.243 L 16.63 19.243 C 16.335 19.196 16.23 19.024 16.23 18.752 C 16.23 18.48 16.359 18.318 16.67 18.259 Z" fill="#8badfb" stroke="#3456a8" stroke-width="0.05" stroke-opacity="0.99"/>
</svg>