<svg width="18" height="23" viewBox="0 0 13 16.767" xmlns="http://www.w3.org/2000/svg">\n  <path d="M9.852,16.767H0.8a0.8,0.8 0,0 1,-0.8 -0.8V3.346A0.79,0.79 0,0 1,0.077 3a0.129,0.129 0,0 1,0.116 -0.072h2.1a0.639,0.639 0,0 0,0.639 -0.639V0.193A0.129,0.129 0,0 1,3 0.077,0.79 0.79,0 0,1 3.346,0H12.2a0.8,0.8 0,0 1,0.8 0.8V15.964a0.8,0.8 0,0 1,-0.8 0.8Z" fill="#f58d00"/>\n  <path d="M3.014,0.073a0.8,0.8 0,0 0,-0.235 0.162L0.235,2.779a0.8,0.8 0,0 0,-0.162 0.235h2.3a0.639,0.639 0,0 0,0.639 -0.639v-2.3Z" fill="#fbd39c"/>\n  <path d="M10.01,8.979h-7.375c-0.129,0 -0.233,-0.224 -0.233,-0.5s0.1,-0.5 0.233,-0.5h7.375c0.129,0 0.233,0.224 0.233,0.5S10.139,8.979 10.01,8.979Z" fill="#fff"/>\n  <path d="M6.78,11.323L2.659,11.323c-0.144,0 -0.261,-0.224 -0.261,-0.5s0.117,-0.5 0.261,-0.5h4.121c0.144,0 0.261,0.224 0.261,0.5S6.924,11.323 6.78,11.323Z" fill="#fff"/>\n  <path d="M10.323,5.241L6.976,5.241a0.231,0.231 0,0 1,-0.2 -0.25L6.776,3.178A0.231,0.231 0,0 1,6.976 2.928L10.961,2.928a0.231,0.231 0,0 1,0.2 0.25L11.161,4.991a0.231,0.231 0,0 1,-0.2 0.25Z" fill="#fff" fill-opacity="0.613" stroke-opacity="0.613"/>\n</svg>