<?xml version="1.0" encoding="utf-8"?>
<svg width="32" height="32" viewBox="0 0 32 32" xmlns="http://www.w3.org/2000/svg">
  <defs>
    <linearGradient gradientUnits="userSpaceOnUse" x1="10.735" y1="9.537" x2="10.735" y2="24.345" id="ic_news-0" spreadMethod="pad">
      <stop offset="0" style="stop-color: #bada55"/>
      <stop offset="1" style="stop-color: #758d29"/>
    </linearGradient>
    <linearGradient gradientUnits="userSpaceOnUse" x1="9.939" y1="13.168" x2="9.939" y2="24.775" id="ic_news-1">
      <stop offset="0" style="stop-color: rgb(22.353% 29.412% 50.588%)"/>
      <stop offset="1" style="stop-color: rgb(8.5857% 18.09% 37.734%)"/>
    </linearGradient>
  </defs>
  <path d="M16,16m-16,0a16,16 0,1 1,32 0a16,16 0,1 1,-32 0" fill="#e3eaf5"/>
  <path d="M9.196,11.9349l2.214,11.953 0.738,0.443s0.282,0.419 0,-3.279 -1.129,-11.515 -1.129,-11.515Z" style="fill: url(&quot;#ic_news-0&quot;); paint-order: fill;"/>
  <path d="M8.891,13.1681c1.5,4.481 1.706,10.533 3.293,11.143l-0.184,0.462s-1.328,0.148 -2.213,-2.509 -2.093,-7.368 -2.093,-7.368Z" style="fill: url(&quot;#ic_news-1&quot;);"/>
  <path fill="#ffffff" d="M11.8,24.8s.6-.4.3-7.2-.4-9.4-.4-9.4l1.5.4 12.2,3.6s-.6,9.6-1,10S11.8,24.8,11.8,24.8Z"/>
  <path d="M 11.963 24.809 C 11.963 24.809 12.553 24.366 12.263 17.578 C 11.973 10.79 11.82 8.134 11.82 8.134 L 25.544 12.118 C 25.544 12.118 24.953 21.71 24.511 22.153 C 24.069 22.596 11.963 24.809 11.963 24.809 Z" fill="#4a90e2"/>
  <g fill="#8abbf7" style="transform-origin: 19.85px 15.1px;" transform="matrix(1.321215, -0.156595, 0.141533, 1.194147, -0.635099, 0.211228)">
    <path d="M 16.5 14.5 L 23 16.4 C 23.305 16.354 23.369 15.934 23.154 15.713 C 23.075 15.633 23.131 15.699 23.112 15.682 L 16.7 13.8 C 16.395 13.846 16.277 14.288 16.495 14.505 C 16.523 14.532 16.48 14.483 16.5 14.5 Z"/>
  </g>
  <g fill="#8abbf7" style="" transform="matrix(1.341162, 0, 0, 1.048959, -19.454096, -16.097206)"/>
  <g fill="#8abbf7" style="" transform="matrix(1.341162, 0, 0, 1.048959, -5.204669, -0.275682)"/>
  <path d="M 19.65 20.536 L 23.393 19.986 C 23.574 19.979 23.972 20.43 23.492 20.754 C 23.472 20.768 23.508 20.741 23.493 20.755 L 19.725 21.341 C 19.58 21.225 19.251 20.907 19.649 20.536 C 19.662 20.518 19.634 20.549 19.65 20.536 Z" style="stroke-width: 1.195; transform-origin: 19.082px 21.093px;" fill="#8abbf7" transform="matrix(0.997682, 0.06805, -0.06805, 0.997682, 0.000001, 0.000001)"/>
  <path d="M 19.548 17.563 L 23.311 17.791 C 23.623 17.84 23.848 18.481 23.333 18.672 C 23.311 18.68 23.336 18.662 23.32 18.676 L 19.524 18.481 C 19.397 18.322 19.119 18.029 19.538 17.577 C 19.554 17.56 19.533 17.576 19.548 17.563 Z" style="stroke-width: 1.195; transform-origin: 21.262px 15.263px;" fill="#8abbf7" transform="matrix(0.998646, -0.052019, 0.052019, 0.998646, 0, 0)"/>
  <path d="M 14.532 17.507 L 18.295 17.735 C 18.607 17.784 18.832 18.425 18.317 18.616 C 18.295 18.624 18.32 18.606 18.304 18.62 L 14.508 18.425 C 14.381 18.266 14.103 17.973 14.522 17.521 C 14.538 17.504 14.517 17.52 14.532 17.507 Z" style="stroke-width: 1.195; transform-origin: 16.246px 15.207px;" fill="#8abbf7" transform="matrix(0.998646, -0.052019, 0.052019, 0.998646, 0, 0)"/>
  <path d="M 14.611 21.073 L 18.354 20.523 C 18.535 20.516 18.933 20.967 18.453 21.291 C 18.433 21.305 18.469 21.278 18.454 21.292 L 14.686 21.878 C 14.541 21.762 14.212 21.444 14.61 21.073 C 14.623 21.055 14.595 21.086 14.611 21.073 Z" style="stroke-width: 1.195; transform-origin: 14.043px 21.63px;" fill="#8abbf7" transform="matrix(0.997682, 0.06805, -0.06805, 0.997682, 0, 0)"/>
</svg>