<svg width="49" height="48" viewBox="0 0 49 48" fill="none" xmlns="http://www.w3.org/2000/svg">
<g clip-path="url(#clip0_68_35)">
<path d="M49 23.5C49 28.3456 47.5631 33.0825 44.871 37.1115C42.1789 41.1405 38.3525 44.2807 33.8758 46.135C29.399 47.9894 24.4728 48.4746 19.7203 47.5292C14.9678 46.5839 10.6023 44.2505 7.1759 40.8241C3.74953 37.3977 1.41612 33.0322 0.47078 28.2797C-0.474555 23.5272 0.0106298 18.601 1.86497 14.1243C3.71931 9.64747 6.85957 5.82109 10.8885 3.129C14.9175 0.436903 19.6544 -0.999996 24.5 -0.999996C30.9978 -0.999996 37.2295 1.58125 41.8241 6.17589C46.4187 10.7705 49 17.0022 49 23.5Z" fill="#DFE8F5"/>
<rect x="23.4592" y="9.00053" width="3.81956" height="5.50023" fill="url(#paint0_linear_68_35)"/>
<path d="M24.796 11.8239L25.8884 11.316C26.1367 11.2005 26.4346 11.239 26.639 11.4169L27.5366 12.1979C27.6893 12.3299 27.8994 12.3904 28.1038 12.3556L29.3012 12.1594C29.5743 12.1136 29.8493 12.2327 29.9906 12.4564L30.6189 13.4465C30.7259 13.6151 30.9111 13.727 31.1155 13.7508L32.3225 13.8828C32.5975 13.9122 32.8266 14.0992 32.8973 14.354L33.2067 15.4706C33.2602 15.6612 33.4034 15.8189 33.5944 15.8941L34.7135 16.3451C34.9675 16.4459 35.1298 16.6879 35.1222 16.9483L35.0897 18.1033C35.084 18.3013 35.1757 18.492 35.3342 18.6167L36.2757 19.3464C36.4896 19.5114 36.5736 19.7882 36.4896 20.0376L36.1134 21.1376C36.0485 21.3246 36.0809 21.53 36.1955 21.6931L36.8811 22.6465C37.0396 22.8629 37.0396 23.1489 36.8811 23.3652L36.1955 24.3186C36.0771 24.4818 36.0485 24.6871 36.1134 24.8759L36.4896 25.9742C36.5736 26.2253 36.4896 26.5003 36.2757 26.6653L35.3342 27.3969C35.1757 27.5234 35.084 27.7122 35.0897 27.9084L35.1222 29.0634C35.1298 29.3256 34.9675 29.5676 34.7135 29.6685L33.5944 30.1177C33.4034 30.1928 33.2602 30.3505 33.2067 30.543L32.8973 31.6577C32.8266 31.9107 32.5975 32.0996 32.3225 32.1307L31.1155 32.2627C30.9092 32.2847 30.7259 32.3966 30.6189 32.5671L29.9906 33.5553C29.8493 33.7808 29.5743 33.8981 29.3012 33.8541L28.1038 33.6561C27.8994 33.6231 27.6893 33.6818 27.5366 33.8138L26.639 34.5967C26.4346 34.7727 26.1367 34.8149 25.8884 34.6975L24.796 34.1878C24.6089 34.1017 24.3911 34.1017 24.204 34.1878L23.1116 34.6975C22.8633 34.813 22.5654 34.7727 22.361 34.5967L21.4654 33.8138C21.3107 33.6818 21.1006 33.6231 20.8962 33.6561L19.6988 33.8541C19.4257 33.8981 19.1507 33.7808 19.0094 33.5553L18.3811 32.5671C18.2741 32.3966 18.0889 32.2847 17.8845 32.2627L16.6775 32.1307C16.4025 32.0996 16.1753 31.9144 16.1027 31.6577L15.7933 30.543C15.7398 30.3505 15.5985 30.1928 15.4056 30.1177L14.2865 29.6685C14.0325 29.5676 13.8702 29.3256 13.8778 29.0634L13.9103 27.9084C13.916 27.7122 13.8243 27.5197 13.6658 27.3969L12.7243 26.6653C12.5123 26.5003 12.4264 26.2253 12.5123 25.9742L12.8866 24.8759C12.9515 24.6871 12.9191 24.4818 12.8045 24.3186L12.1189 23.3652C11.9604 23.1489 11.9604 22.8629 12.1189 22.6465L12.8045 21.6931C12.9229 21.53 12.9515 21.3246 12.8866 21.1376L12.5123 20.0376C12.4264 19.7882 12.5123 19.5114 12.7243 19.3464L13.6658 18.6167C13.8243 18.4883 13.916 18.3013 13.9103 18.1033L13.8778 16.9483C13.8702 16.6879 14.0325 16.4459 14.2865 16.3451L15.4056 15.8941C15.5985 15.8189 15.7398 15.6612 15.7933 15.4706L16.1027 14.354C16.1753 14.101 16.4025 13.9122 16.6775 13.8828L17.8845 13.7508C18.0908 13.727 18.2741 13.6151 18.3811 13.4465L19.0094 12.4564C19.1507 12.2327 19.4257 12.1136 19.6988 12.1594L20.8962 12.3556C21.1006 12.3904 21.3107 12.3299 21.4654 12.1979L22.361 11.4169C22.5654 11.239 22.8633 11.1969 23.1116 11.316L24.204 11.8239C24.3911 11.9119 24.6089 11.9119 24.796 11.8239Z" fill="#598EEF"/>
<path d="M35.382 22.8281C35.382 23.2479 35.3572 23.6605 35.3075 24.0675C35.2502 24.524 35.1624 24.9732 35.044 25.4095C34.9943 25.5984 34.937 25.7799 34.8759 25.9651C34.7632 26.3061 34.6295 26.6397 34.4787 26.9643C34.154 27.6665 33.7472 28.3265 33.2736 28.937C32.8725 29.454 32.4161 29.9344 31.9196 30.3671C30.0174 32.0355 27.4755 33.0585 24.6853 33.0658C21.8894 33.075 19.3398 32.0703 17.4243 30.4129C16.9335 29.9876 16.4809 29.5182 16.0779 29.0122C15.3274 28.068 14.7449 26.9973 14.3744 25.8385C14.2006 25.2959 14.0726 24.7367 13.9962 24.1646C13.939 23.7503 13.9122 23.3323 13.9103 22.9051C13.8931 17.2692 18.6829 12.6875 24.6108 12.6673C30.5388 12.6472 35.361 17.1959 35.382 22.8281Z" fill="url(#paint1_radial_68_35)"/>
<path d="M33.0014 23.0732C33.1864 18.52 29.4912 14.6845 24.7507 14.5072C20.0057 14.3277 16.0118 17.8757 15.8269 22.4268C15.6396 26.9801 19.3349 30.8155 24.0776 30.995C28.8203 31.1723 32.8164 27.6265 33.0014 23.0732Z" fill="url(#paint2_linear_68_35)"/>
<path d="M24.4114 23.4252V23.4225L21.0746 24.5205L17.7377 21.2374H17.7298L17.735 21.2347L17.7298 21.2321L17.7403 21.2347L22.3497 20.5578L24.4141 16.3341V17.0323V17.0296V16.3341L26.4836 20.5578L31.0983 21.2321L27.7588 24.5205L24.4141 23.4252H24.4114ZM24.4141 23.308V23.3053V23.4199V23.308ZM28.5479 29.1679L27.7588 24.5205L24.4193 23.4279H24.4167L21.0746 24.5258L20.288 29.1573L20.2828 29.1679L20.2854 29.1626V29.1679L20.2932 29.1573L24.4141 26.9694V26.9748L28.5479 29.1679Z" fill="url(#paint3_linear_68_35)"/>
<path d="M27.254 -2.96675L21.5494 9.0057L29.9166 9.0057L30.5762 9.00576L30.5762 7.07753L33.9814 -0.046531L30.1041 -0.207369L27.254 -2.96675Z" fill="#6194FA"/>
<path d="M29.4509 6.99456L23.6412 6.99457L27.8248 -2.00047L29.9196 0.183417L33.0544 -0.00157146L29.4509 6.99456Z" fill="url(#paint4_linear_68_35)"/>
<path d="M23.1659 -2.96012L29.2181 9.05056L20.4368 9.05056L19.3392 9.05055C19.2618 8.88838 19.4137 7.20823 19.3392 7.05206C17.9149 4.06617 17.6051 3.11433 16.0622 -0.120178L20.1375 -0.235168L23.1659 -2.96012Z" fill="url(#paint5_linear_68_35)"/>
<path d="M20.5427 6.82941L17.0977 -0.00224657L20.2775 0.0983614L22.586 -2.00075L26.7814 6.82934L20.5427 6.82941Z" fill="url(#paint6_linear_68_35)"/>
</g>
<defs>
<linearGradient id="paint0_linear_68_35" x1="25.3689" y1="9.00053" x2="25.3689" y2="14.5008" gradientUnits="userSpaceOnUse">
<stop offset="0.490385" stop-color="#0F4FC3"/>
<stop offset="0.995192" stop-color="#07265D"/>
</linearGradient>
<radialGradient id="paint1_radial_68_35" cx="0" cy="0" r="1" gradientUnits="userSpaceOnUse" gradientTransform="translate(24.6461 22.8666) rotate(-90) scale(10.1993 10.7359)">
<stop offset="0.774038" stop-color="#3F6099"/>
<stop offset="0.975962" stop-color="#69A0FF"/>
</radialGradient>
<linearGradient id="paint2_linear_68_35" x1="24.4141" y1="14.5007" x2="24.4141" y2="31.0014" gradientUnits="userSpaceOnUse">
<stop stop-color="#144BC0"/>
<stop offset="0.894231" stop-color="#09235A"/>
</linearGradient>
<linearGradient id="paint3_linear_68_35" x1="24.4141" y1="16.3341" x2="24.4141" y2="29.1679" gradientUnits="userSpaceOnUse">
<stop stop-color="#E9D46C"/>
<stop offset="1" stop-color="#EB6923"/>
</linearGradient>
<linearGradient id="paint4_linear_68_35" x1="28.8707" y1="-1.00103" x2="28.3722" y2="7.02518" gradientUnits="userSpaceOnUse">
<stop stop-color="#5893FE"/>
<stop offset="1" stop-color="#1D58CD"/>
</linearGradient>
<linearGradient id="paint5_linear_68_35" x1="22.6906" y1="-2.9628" x2="22.6229" y2="9.06905" gradientUnits="userSpaceOnUse">
<stop offset="0.730769" stop-color="#6194FA"/>
<stop offset="1" stop-color="#395894"/>
</linearGradient>
<linearGradient id="paint6_linear_68_35" x1="21.9763" y1="-2.00418" x2="21.9265" y2="6.8372" gradientUnits="userSpaceOnUse">
<stop stop-color="#3C75EA"/>
<stop offset="1" stop-color="#1D58CD"/>
</linearGradient>
<clipPath id="clip0_68_35">
<rect width="49" height="48" fill="white"/>
</clipPath>
</defs>
</svg>
