<?xml version="1.0" encoding="utf-8"?>
<svg xmlns="http://www.w3.org/2000/svg" viewBox="15.945 -1.2632 15.4544 15.9832" width="15.4544px" height="15.9832px"><defs><linearGradient gradientUnits="userSpaceOnUse" x1="19.853" y1="8.066" x2="19.853" y2="16.578" id="Untitled 5-0" gradientTransform="matrix(-1.392901, -1.25916, 0.56637, -0.626526, 46.412362, 35.065923)"><stop offset="0" style="stop-color: rgb(19.216% 41.961% 87.059%)"/><stop offset="1" style="stop-color: rgb(0% 27.251% 57.502%)"/></linearGradient></defs><path d="M 30.016 2.071 C 28.229 0.195 25.021 -2.599 23.337 -0.537 C 21.653 1.523 18.324 6.538 17.461 7.736 C 17.013 8.305 16.503 8.824 15.945 9.287 C 17.593 9.661 19.095 10.513 20.259 11.736 C 21.048 12.594 21.641 13.613 22.001 14.72 C 22.141 14.486 22.294 14.259 22.46 14.042 C 23.763 12.602 25.159 11.245 26.641 9.985 C 28.602 8.354 30.784 6.197 31.126 5.848 C 31.47 5.497 31.806 3.947 30.016 2.071 Z" style="fill: url(&quot;#Untitled 5-0&quot;);" id="object-4" transform="matrix(1, 0, 0, 1, 0, 1.4210854715202004e-14)"/></svg>