<?xml version="1.0" encoding="utf-8"?>
<svg xmlns="http://www.w3.org/2000/svg" viewBox="13.4277 8.598 9.2353 8.7209" width="9.2353px" height="8.7209px"><path d="M 20.932 11.049 C 19.765 9.824 18.264 8.974 16.617 8.598 C 15.888 9.234 15.127 9.824 14.333 10.374 C 14.046 10.54 13.886 10.865 13.93 11.196 C 13.386 11.684 13.269 12.494 13.652 13.117 C 13.652 13.117 14.698 11.868 17.202 13.916 C 19.706 15.961 18.324 17.252 18.324 17.252 C 18.884 17.406 19.485 17.291 19.949 16.941 C 20.09 16.818 20.273 16.753 20.458 16.757 C 20.736 16.781 21.146 16.45 21.35 16.177 C 21.491 15.988 22.171 14.819 22.663 14.035 C 22.306 12.928 21.715 11.909 20.932 11.049 Z" fill="#1258c9" style="" id="object-5" transform="matrix(1, 0, 0, 1, 0, 1.4210854715202004e-14)"/></svg>