<?xml version="1.0" encoding="utf-8"?>
<svg xmlns="http://www.w3.org/2000/svg" viewBox="4.036 13.0798 14.7331 15.0037" width="14.7331px" height="15.0037px"><defs><linearGradient gradientUnits="userSpaceOnUse" x1="13.319" y1="15.705" x2="13.319" y2="23.695" id="Untitled 7-1" gradientTransform="matrix(-1.395064, -1.256769, 0.48486, -0.538214, 22.498261, 43.344415)" spreadMethod="pad"><stop offset="0" style="stop-color: rgb(98.824% 73.333% 13.725%)"/><stop offset="1" style="stop-color: rgb(60.673% 40.613% 0%)"/></linearGradient></defs><path d="M 17.584 14.342 C 16.048 13.015 14.534 12.839 13.997 13.332 C 11.638 15.967 9.091 18.429 6.374 20.695 C 6.374 20.695 6.118 20.762 5.901 22.275 C 5.617 23.998 5.008 25.654 4.105 27.151 C 4.078 27.21 4.059 27.274 4.047 27.34 L 4.036 27.34 C 4.07 27.361 4.111 27.374 4.152 27.377 L 4.291 27.389 L 9.75 21.023 C 9.677 20.665 9.789 20.294 10.049 20.037 C 10.418 19.621 10.957 19.491 11.249 19.749 C 11.54 20.007 11.471 20.553 11.099 20.973 C 10.887 21.235 10.568 21.387 10.232 21.389 L 4.523 28.003 C 4.523 28.003 4.7 28.248 5.157 27.883 C 7.168 26.388 9.564 25.499 12.065 25.322 C 12.065 25.322 12.609 25.331 12.81 25.069 L 18.704 16.8 C 18.704 16.8 19.175 15.711 17.584 14.342 Z" stroke="#000000" stroke-opacity="0" stroke-width="1" style="fill: url(&quot;#Untitled 7-1&quot;); paint-order: fill;" id="object-6" transform="matrix(1, 0, 0, 1, 0, 1.4210854715202004e-14)"/></svg>